<mxfile host="app.diagrams.net" modified="2022-09-29T03:44:05.087Z" agent="5.0 (Macintosh; Intel Mac OS X 10_15_7) AppleWebKit/537.36 (KHTML, like Gecko) Chrome/105.0.0.0 Safari/537.36" etag="w67FZQKUxz4KrAEjY98i" version="20.3.7" type="github">
  <diagram id="3Po59cTx-3c-LFYL10w5" name="第 1 页">
    <mxGraphModel dx="1234" dy="703" grid="1" gridSize="10" guides="1" tooltips="1" connect="1" arrows="1" fold="1" page="0" pageScale="1" pageWidth="827" pageHeight="1169" math="0" shadow="0">
      <root>
        <mxCell id="0" />
        <mxCell id="1" parent="0" />
        <mxCell id="_Y6JbgDPW93_Q4xCeuSz-2" style="edgeStyle=orthogonalEdgeStyle;rounded=0;orthogonalLoop=1;jettySize=auto;html=1;entryX=0;entryY=0.763;entryDx=0;entryDy=0;entryPerimeter=0;" edge="1" parent="1" source="_Y6JbgDPW93_Q4xCeuSz-1" target="_Y6JbgDPW93_Q4xCeuSz-6">
          <mxGeometry relative="1" as="geometry">
            <mxPoint x="440" y="180" as="targetPoint" />
          </mxGeometry>
        </mxCell>
        <mxCell id="_Y6JbgDPW93_Q4xCeuSz-28" value="&lt;span style=&quot;font-size: 12px; background-color: rgb(248, 249, 250);&quot;&gt;&lt;b&gt;前端总线&lt;/b&gt;（Front-side Bus）&lt;/span&gt;" style="edgeLabel;html=1;align=center;verticalAlign=middle;resizable=0;points=[];fontColor=#000000;" vertex="1" connectable="0" parent="_Y6JbgDPW93_Q4xCeuSz-2">
          <mxGeometry x="-0.346" relative="1" as="geometry">
            <mxPoint as="offset" />
          </mxGeometry>
        </mxCell>
        <mxCell id="_Y6JbgDPW93_Q4xCeuSz-4" style="edgeStyle=orthogonalEdgeStyle;rounded=0;orthogonalLoop=1;jettySize=auto;html=1;entryX=0.5;entryY=0;entryDx=0;entryDy=0;entryPerimeter=0;" edge="1" parent="1" source="_Y6JbgDPW93_Q4xCeuSz-1" target="_Y6JbgDPW93_Q4xCeuSz-3">
          <mxGeometry relative="1" as="geometry" />
        </mxCell>
        <mxCell id="_Y6JbgDPW93_Q4xCeuSz-1" value="CPU" style="rounded=0;whiteSpace=wrap;html=1;" vertex="1" parent="1">
          <mxGeometry x="80" y="150" width="120" height="60" as="geometry" />
        </mxCell>
        <mxCell id="_Y6JbgDPW93_Q4xCeuSz-3" value="CPU Cache" style="shape=cylinder3;whiteSpace=wrap;html=1;boundedLbl=1;backgroundOutline=1;size=15;" vertex="1" parent="1">
          <mxGeometry x="95" y="310" width="90" height="60" as="geometry" />
        </mxCell>
        <mxCell id="_Y6JbgDPW93_Q4xCeuSz-7" style="edgeStyle=orthogonalEdgeStyle;rounded=0;orthogonalLoop=1;jettySize=auto;html=1;" edge="1" parent="1" source="_Y6JbgDPW93_Q4xCeuSz-5">
          <mxGeometry relative="1" as="geometry">
            <mxPoint x="750" y="180" as="targetPoint" />
          </mxGeometry>
        </mxCell>
        <mxCell id="_Y6JbgDPW93_Q4xCeuSz-17" value="内存总线" style="edgeLabel;html=1;align=center;verticalAlign=middle;resizable=0;points=[];" vertex="1" connectable="0" parent="_Y6JbgDPW93_Q4xCeuSz-7">
          <mxGeometry x="-0.4222" y="1" relative="1" as="geometry">
            <mxPoint y="1" as="offset" />
          </mxGeometry>
        </mxCell>
        <mxCell id="_Y6JbgDPW93_Q4xCeuSz-9" style="edgeStyle=orthogonalEdgeStyle;rounded=0;orthogonalLoop=1;jettySize=auto;html=1;" edge="1" parent="1" source="_Y6JbgDPW93_Q4xCeuSz-5">
          <mxGeometry relative="1" as="geometry">
            <mxPoint x="530" y="440" as="targetPoint" />
          </mxGeometry>
        </mxCell>
        <mxCell id="_Y6JbgDPW93_Q4xCeuSz-10" value="IO总线" style="edgeLabel;html=1;align=center;verticalAlign=middle;resizable=0;points=[];" vertex="1" connectable="0" parent="_Y6JbgDPW93_Q4xCeuSz-9">
          <mxGeometry x="-0.6045" relative="1" as="geometry">
            <mxPoint as="offset" />
          </mxGeometry>
        </mxCell>
        <mxCell id="_Y6JbgDPW93_Q4xCeuSz-5" value="" style="swimlane;startSize=0;" vertex="1" parent="1">
          <mxGeometry x="490" y="140" width="80" height="80" as="geometry" />
        </mxCell>
        <mxCell id="_Y6JbgDPW93_Q4xCeuSz-6" value="北桥芯片&lt;br&gt;I/O桥接器" style="text;html=1;align=center;verticalAlign=middle;resizable=0;points=[];autosize=1;strokeColor=none;fillColor=none;" vertex="1" parent="_Y6JbgDPW93_Q4xCeuSz-5">
          <mxGeometry y="10" width="80" height="40" as="geometry" />
        </mxCell>
        <mxCell id="_Y6JbgDPW93_Q4xCeuSz-8" value="Memory" style="shape=cylinder3;whiteSpace=wrap;html=1;boundedLbl=1;backgroundOutline=1;size=15;" vertex="1" parent="1">
          <mxGeometry x="760" y="150" width="90" height="60" as="geometry" />
        </mxCell>
        <mxCell id="_Y6JbgDPW93_Q4xCeuSz-11" value="" style="endArrow=classic;html=1;rounded=0;" edge="1" parent="1">
          <mxGeometry width="50" height="50" relative="1" as="geometry">
            <mxPoint x="530" y="320" as="sourcePoint" />
            <mxPoint x="630" y="320" as="targetPoint" />
          </mxGeometry>
        </mxCell>
        <mxCell id="_Y6JbgDPW93_Q4xCeuSz-19" value="USB总线" style="edgeLabel;html=1;align=center;verticalAlign=middle;resizable=0;points=[];" vertex="1" connectable="0" parent="_Y6JbgDPW93_Q4xCeuSz-11">
          <mxGeometry x="-0.22" relative="1" as="geometry">
            <mxPoint y="1" as="offset" />
          </mxGeometry>
        </mxCell>
        <mxCell id="_Y6JbgDPW93_Q4xCeuSz-12" value="USB设备" style="text;html=1;align=center;verticalAlign=middle;resizable=0;points=[];autosize=1;strokeColor=none;fillColor=none;" vertex="1" parent="1">
          <mxGeometry x="630" y="305" width="70" height="30" as="geometry" />
        </mxCell>
        <mxCell id="_Y6JbgDPW93_Q4xCeuSz-13" value="" style="endArrow=classic;html=1;rounded=0;" edge="1" parent="1">
          <mxGeometry width="50" height="50" relative="1" as="geometry">
            <mxPoint x="530" y="360" as="sourcePoint" />
            <mxPoint x="630" y="360" as="targetPoint" />
          </mxGeometry>
        </mxCell>
        <mxCell id="_Y6JbgDPW93_Q4xCeuSz-14" value="显示器" style="text;html=1;align=center;verticalAlign=middle;resizable=0;points=[];autosize=1;strokeColor=none;fillColor=none;" vertex="1" parent="1">
          <mxGeometry x="635" y="345" width="60" height="30" as="geometry" />
        </mxCell>
        <mxCell id="_Y6JbgDPW93_Q4xCeuSz-15" value="" style="endArrow=classic;html=1;rounded=0;" edge="1" parent="1">
          <mxGeometry width="50" height="50" relative="1" as="geometry">
            <mxPoint x="530" y="400" as="sourcePoint" />
            <mxPoint x="630" y="400" as="targetPoint" />
          </mxGeometry>
        </mxCell>
        <mxCell id="_Y6JbgDPW93_Q4xCeuSz-16" value="硬盘设备" style="text;html=1;align=center;verticalAlign=middle;resizable=0;points=[];autosize=1;strokeColor=none;fillColor=none;" vertex="1" parent="1">
          <mxGeometry x="630" y="385" width="70" height="30" as="geometry" />
        </mxCell>
        <mxCell id="_Y6JbgDPW93_Q4xCeuSz-20" value="&lt;div style=&quot;text-align: left;&quot;&gt;&lt;span style=&quot;background-color: initial;&quot;&gt;&lt;font color=&quot;#808080&quot;&gt;细分&lt;/font&gt;&lt;/span&gt;&lt;/div&gt;&lt;div style=&quot;text-align: left;&quot;&gt;&lt;ul&gt;&lt;li&gt;&lt;span style=&quot;background-color: initial;&quot;&gt;&lt;font color=&quot;#808080&quot;&gt;PCI总线&lt;/font&gt;&lt;/span&gt;&lt;/li&gt;&lt;li&gt;&lt;span style=&quot;background-color: initial;&quot;&gt;&lt;font color=&quot;#808080&quot;&gt;ISA总线&lt;/font&gt;&lt;/span&gt;&lt;/li&gt;&lt;li&gt;&lt;span style=&quot;background-color: initial;&quot;&gt;&lt;font color=&quot;#808080&quot;&gt;……&lt;/font&gt;&lt;/span&gt;&lt;/li&gt;&lt;/ul&gt;&lt;/div&gt;" style="text;html=1;strokeColor=none;fillColor=none;align=center;verticalAlign=middle;whiteSpace=wrap;rounded=0;" vertex="1" parent="1">
          <mxGeometry x="710" y="450" width="150" height="30" as="geometry" />
        </mxCell>
        <mxCell id="_Y6JbgDPW93_Q4xCeuSz-21" value="&lt;font color=&quot;#000000&quot;&gt;本地总线（Local Bus）&lt;br&gt;也叫&lt;b&gt;后端总线&lt;/b&gt;&lt;br&gt;&lt;/font&gt;" style="text;html=1;strokeColor=none;fillColor=none;align=center;verticalAlign=middle;whiteSpace=wrap;rounded=0;fontColor=#808080;" vertex="1" parent="1">
          <mxGeometry x="20" y="240" width="140" height="30" as="geometry" />
        </mxCell>
        <mxCell id="_Y6JbgDPW93_Q4xCeuSz-22" value="&lt;font color=&quot;#000000&quot;&gt;也叫系统总线&lt;br&gt;&lt;/font&gt;" style="text;html=1;strokeColor=none;fillColor=none;align=center;verticalAlign=middle;whiteSpace=wrap;rounded=0;fontColor=#808080;" vertex="1" parent="1">
          <mxGeometry x="250" y="190" width="80" height="20" as="geometry" />
        </mxCell>
      </root>
    </mxGraphModel>
  </diagram>
</mxfile>
